#N canvas 72 96 1848 984 10;
#X obj 168 52 cnv 15 149 232 empty empty empty 20 12 0 14 -261234 -66577
0;
#X obj 183 95 vsl 15 128 0 1 0 0 volu1 reverbVol empty 0 -9 0 10 -262144
-1 -1 7620 1;
#X obj 233 95 vsl 15 128 0 127 0 0 par11 reverbPar1 empty 0 -9 0 10
-262144 -1 -1 4600 1;
#X obj 284 96 vsl 15 128 0 127 0 0 par21 reverbPar2 empty 0 -9 0 10
-262144 -1 -1 11500 1;
#X text 271 65 PARAM2;
#X text 183 17 VOLUME CONTROL;
#X text 172 65 MAIN;
#X text 221 66 REVERB;
