#N canvas 0 27 1920 984 12;
#X obj 60 210 print TCP;
#X obj 180 360 dac~;
#X msg 447 246 0 \, 1 200;
#X obj 445 298 line~;
#X obj 442 341 sqrt~;
#X obj 444 487 cos~;
#X obj 444 555 *~ 1;
#X obj 450 626 clip~ -0.5 0.5;
#X floatatom 580 480 5 0 0 0 - - - 0;
#X floatatom 520 410 5 0 0 0 - - - 0;
#X obj 440 450 -~;
#X floatatom 510 360 5 0 0 0 - - - 0;
#X obj 446 396 *~;
#X obj 320 300 bng 25 250 50 0 empty empty empty 0 -10 0 12 #fcfcfc
#000000 #000000;
#X floatatom 190 190 5 0 0 0 - - - 0;
#X floatatom 240 190 5 0 0 0 - - - 0;
#X floatatom 140 190 5 0 0 0 - - - 0;
#X obj 180 120 unpack f f f;
#X obj 290 250 sel 1;
#X obj 180 250 osc~;
#X floatatom 240 300 5 0 0 0 - - - 0;
#X obj 180 290 *~;
#X obj 130 80 netreceive 4000 0;
#X connect 2 0 3 0;
#X connect 3 0 4 0;
#X connect 4 0 12 0;
#X connect 5 0 6 0;
#X connect 6 0 7 0;
#X connect 7 0 1 1;
#X connect 8 0 6 1;
#X connect 9 0 10 1;
#X connect 10 0 5 0;
#X connect 11 0 12 1;
#X connect 12 0 10 0;
#X connect 13 0 2 0;
#X connect 14 0 18 0;
#X connect 16 0 19 0;
#X connect 17 0 16 0;
#X connect 17 1 14 0;
#X connect 17 2 15 0;
#X connect 18 0 13 0;
#X connect 19 0 21 0;
#X connect 20 0 21 1;
#X connect 21 0 1 0;
#X connect 22 0 0 0;
#X connect 22 0 17 0;
