#N canvas 0 27 1920 984 12;
#X obj 60 210 print TCP;
#X obj 130 80 netreceive 13000 0;
#X obj 180 360 dac~;
#X msg 447 246 0 \, 1 200;
#X obj 445 298 line~;
#X obj 442 341 sqrt~;
#X obj 444 487 cos~;
#X obj 444 555 *~ 1;
#X obj 450 626 clip~ -0.5 0.5;
#X obj 459 152 metro;
#X obj 450 120 tgl 15 0 empty empty empty 17 7 0 10 #fcfcfc #000000
#000000 0 1;
#X obj 580 300 \$3;
#X floatatom 520 110 5 0 0 0 - - - 0;
#X floatatom 580 480 5 0 0 0 - - - 0;
#X obj 470 90 * 3;
#X floatatom 520 410 5 0 0 0 - - - 0;
#X obj 440 450 -~;
#X floatatom 510 360 5 0 0 0 - - - 0;
#X obj 446 396 *~;
#X obj 320 300 bng 25 250 50 0 empty empty empty 0 -10 0 12 #fcfcfc
#000000 #000000;
#X floatatom 190 190 5 0 0 0 - - - 0;
#X floatatom 256 189 5 0 0 0 - - - 0;
#X floatatom 140 190 5 0 0 0 - - - 0;
#X obj 290 250 sel 1;
#X obj 180 250 osc~;
#X floatatom 520 138 5 0 0 0 - - - 0;
#X floatatom 240 300 5 0 0 0 - - - 0;
#X obj 180 290 *~;
#X obj 180 120 unpack f f f f;
#X connect 1 0 0 0;
#X connect 1 0 28 0;
#X connect 3 0 4 0;
#X connect 4 0 5 0;
#X connect 5 0 18 0;
#X connect 6 0 7 0;
#X connect 7 0 8 0;
#X connect 8 0 2 1;
#X connect 10 0 9 0;
#X connect 12 0 25 0;
#X connect 13 0 7 1;
#X connect 14 0 9 1;
#X connect 15 0 16 1;
#X connect 16 0 6 0;
#X connect 17 0 18 1;
#X connect 18 0 16 0;
#X connect 19 0 3 0;
#X connect 20 0 23 0;
#X connect 22 0 24 0;
#X connect 23 0 19 0;
#X connect 24 0 27 0;
#X connect 26 0 27 1;
#X connect 27 0 2 0;
#X connect 28 1 22 0;
#X connect 28 2 20 0;
#X connect 28 3 21 0;
